<?xml version="1.0" encoding="UTF-8" standalone="no"?>
<svg
   xmlns:dc="http://purl.org/dc/elements/1.1/"
   xmlns:cc="http://creativecommons.org/ns#"
   xmlns:rdf="http://www.w3.org/1999/02/22-rdf-syntax-ns#"
   xmlns:svg="http://www.w3.org/2000/svg"
   xmlns="http://www.w3.org/2000/svg"
   xmlns:sodipodi="http://sodipodi.sourceforge.net/DTD/sodipodi-0.dtd"
   xmlns:inkscape="http://www.inkscape.org/namespaces/inkscape"
   width="677"
   height="677"
   version="1.1"
   viewBox="0 0 507.75001 507.75001"
   id="svg117"
   sodipodi:docname="Grand knight school.svg"
   inkscape:export-filename="/home/marek/Downloads/Grand knight school.png"
   inkscape:export-xdpi="28.360415"
   inkscape:export-ydpi="28.360415"
   inkscape:version="1.0.2 (e86c870879, 2021-01-15)">
  <metadata
     id="metadata121">
    <rdf:RDF>
      <cc:Work
         rdf:about="">
        <dc:format>image/svg+xml</dc:format>
        <dc:type
           rdf:resource="http://purl.org/dc/dcmitype/StillImage" />
        <dc:title></dc:title>
      </cc:Work>
    </rdf:RDF>
  </metadata>
  <sodipodi:namedview
     pagecolor="#ffffff"
     bordercolor="#666666"
     borderopacity="1"
     objecttolerance="10"
     gridtolerance="10"
     guidetolerance="10"
     inkscape:pageopacity="0"
     inkscape:pageshadow="2"
     inkscape:window-width="1920"
     inkscape:window-height="990"
     id="namedview119"
     showgrid="false"
     units="px"
     inkscape:pagecheckerboard="true"
     inkscape:zoom="0.44410714"
     inkscape:cx="465.8222"
     inkscape:cy="305.4202"
     inkscape:window-x="0"
     inkscape:window-y="30"
     inkscape:window-maximized="1"
     inkscape:current-layer="svg117" />
  <defs
     id="defs41">
    <symbol
       id="m"
       overflow="visible">
      <path
         d="m 29.312,-1.75 c -1.5117,0.78125 -3.0898,1.3711 -4.7344,1.7656 -1.6367,0.40625 -3.3398,0.60938 -5.1094,0.60938 -5.3125,0 -9.5273,-1.4844 -12.641,-4.4531 -3.1055,-2.9688 -4.6562,-7 -4.6562,-12.094 0,-5.094 1.5508,-9.125 4.6562,-12.094 3.1133,-2.9688 7.3281,-4.4531 12.641,-4.4531 1.7695,0 3.4727,0.19922 5.1094,0.59375 1.6445,0.39844 3.2227,0.99219 4.7344,1.7812 v 6.5938 c -1.5312,-1.0391 -3.0391,-1.8008 -4.5156,-2.2812 -1.4805,-0.48828 -3.0391,-0.73438 -4.6719,-0.73438 -2.9375,0 -5.2461,0.94531 -6.9219,2.8281 -1.6797,1.875 -2.5156,4.4648 -2.5156,7.7656 0,3.293 0.83594,5.8828 2.5156,7.7656 1.6758,1.875 3.9844,2.8125 6.9219,2.8125 1.6328,0 3.1914,-0.23828 4.6719,-0.71875 1.4766,-0.48828 2.9844,-1.2539 4.5156,-2.2969 z"
         id="path2" />
    </symbol>
    <symbol
       id="h"
       overflow="visible">
      <path
         d="m 21.453,-17.406 c -0.67969,-0.3125 -1.3516,-0.53906 -2.0156,-0.6875 -0.65625,-0.15625 -1.3203,-0.23438 -1.9844,-0.23438 -1.9688,0 -3.4844,0.63281 -4.5469,1.8906 -1.0547,1.2617 -1.5781,3.0703 -1.5781,5.4219 V 6.2e-4 H 3.6718 v -23.922 h 7.6562 v 3.9219 c 0.97656,-1.5625 2.1016,-2.7031 3.375,-3.4219 1.2812,-0.71875 2.8125,-1.0781 4.5938,-1.0781 0.25,0 0.52344,0.01172 0.82812,0.03125 0.30078,0.02344 0.73438,0.07031 1.2969,0.14062 z"
         id="path5" />
    </symbol>
    <symbol
       id="c"
       overflow="visible">
      <path
         d="m 27.562,-12.031 v 2.1875 H 9.671 c 0.1875,1.793 0.83203,3.1367 1.9375,4.0312 1.1133,0.89844 2.6719,1.3438 4.6719,1.3438 1.6016,0 3.25,-0.23438 4.9375,-0.70312 1.6875,-0.47656 3.4219,-1.2031 5.2031,-2.1719 v 5.8906 c -1.8047,0.6875 -3.6094,1.2031 -5.4219,1.5469 -1.8125,0.35156 -3.6211,0.53125 -5.4219,0.53125 -4.3359,0 -7.7031,-1.0977 -10.109,-3.2969 -2.3984,-2.207 -3.5938,-5.2969 -3.5938,-9.2656 0,-3.9062 1.1758,-6.9727 3.5312,-9.2031 2.3633,-2.2383 5.6094,-3.3594 9.7344,-3.3594 3.7578,0 6.7695,1.1367 9.0312,3.4062 2.2578,2.2617 3.3906,5.2812 3.3906,9.0625 z m -7.8594,-2.5312 c 0,-1.457 -0.42969,-2.6289 -1.2812,-3.5156 -0.84375,-0.89453 -1.9492,-1.3438 -3.3125,-1.3438 -1.4922,0 -2.6992,0.41797 -3.625,1.25 -0.91797,0.83594 -1.4922,2.0391 -1.7188,3.6094 z"
         id="path8" />
    </symbol>
    <symbol
       id="b"
       overflow="visible">
      <path
         d="m 14.391,-10.766 c -1.5938,0 -2.793,0.27344 -3.5938,0.8125 -0.80469,0.54297 -1.2031,1.3398 -1.2031,2.3906 0,0.96875 0.32031,1.7305 0.96875,2.2812 0.64453,0.54297 1.5469,0.8125 2.7031,0.8125 1.4375,0 2.6445,-0.51562 3.625,-1.5469 0.98828,-1.0312 1.4844,-2.3203 1.4844,-3.875 v -0.875 z m 11.688,-2.8906 V -6e-4 h -7.7031 v -3.5469 c -1.0312,1.4492 -2.1875,2.5078 -3.4688,3.1719 -1.2813,0.6641 -2.8398,1 -4.6719,1 -2.4805,0 -4.4961,-0.72266 -6.0469,-2.1719 -1.543,-1.4453 -2.3125,-3.3203 -2.3125,-5.625 0,-2.8125 0.96094,-4.8672 2.8906,-6.1719 1.9375,-1.3125 4.9688,-1.9688 9.0938,-1.9688 h 4.5156 v -0.60938 c 0,-1.207 -0.48047,-2.0938 -1.4375,-2.6562 -0.94922,-0.5625 -2.4375,-0.84375 -4.4688,-0.84375 -1.6367,0 -3.1562,0.16797 -4.5625,0.5 -1.4062,0.32422 -2.7188,0.8125 -3.9375,1.4688 v -5.8281 c 1.6445,-0.40625 3.2891,-0.70703 4.9375,-0.90625 1.6562,-0.20703 3.3047,-0.3125 4.9531,-0.3125 4.3203,0 7.4375,0.85547 9.3438,2.5625 1.9141,1.6992 2.875,4.4609 2.875,8.2812 z"
         id="path11" />
    </symbol>
    <symbol
       id="g"
       overflow="visible">
      <path
         d="m 12.031,-30.719 v 6.7969 h 7.875 v 5.4688 h -7.875 v 10.141 c 0,1.1172 0.21875,1.8711 0.65625,2.2656 0.4375,0.38672 1.3125,0.57812 2.625,0.57812 h 3.9375 v 5.4688 h -6.5625 c -3.0234,0 -5.1641,-0.62891 -6.4219,-1.8906 -1.2617,-1.2578 -1.8906,-3.3984 -1.8906,-6.4219 v -10.141 h -3.7969 v -5.4688 h 3.7969 v -6.7969 z"
         id="path14" />
    </symbol>
    <symbol
       id="f"
       overflow="visible">
      <path
         d="m 19.953,-20.422 v -12.812 h 7.6875 V 0 H 19.953 v -3.4531 c -1.0547,1.4062 -2.2148,2.4375 -3.4844,3.0938 -1.2734,0.65625 -2.7422,0.98438 -4.4062,0.98438 -2.9492,0 -5.3711,-1.1719 -7.2656,-3.5156 -1.8867,-2.3438 -2.8281,-5.3594 -2.8281,-9.0469 0,-3.6875 0.94141,-6.7031 2.8281,-9.0469 1.8945,-2.3438 4.3164,-3.5156 7.2656,-3.5156 1.6562,0 3.1172,0.33594 4.3906,1 1.2812,0.65625 2.4453,1.6836 3.5,3.0781 z m -5.0469,15.484 c 1.6445,0 2.8945,-0.59766 3.75,-1.7969 0.86328,-1.1953 1.2969,-2.9297 1.2969,-5.2031 0,-2.2812 -0.43359,-4.0195 -1.2969,-5.2188 -0.85547,-1.1953 -2.1055,-1.7969 -3.75,-1.7969 -1.625,0 -2.8711,0.60156 -3.7344,1.7969 -0.85547,1.1992 -1.2812,2.9375 -1.2812,5.2188 0,2.2734 0.42578,4.0078 1.2812,5.2031 0.86328,1.1992 2.1094,1.7969 3.7344,1.7969 z"
         id="path17" />
    </symbol>
    <symbol
       id="e"
       overflow="visible">
      <path
         d="m 16.406,-4.9375 c 1.6328,0 2.8828,-0.59766 3.75,-1.7969 0.86328,-1.1953 1.2969,-2.9297 1.2969,-5.2031 0,-2.2812 -0.43359,-4.0195 -1.2969,-5.2188 -0.86719,-1.1953 -2.1172,-1.7969 -3.75,-1.7969 -1.6367,0 -2.8906,0.60547 -3.7656,1.8125 -0.875,1.1992 -1.3125,2.9336 -1.3125,5.2031 0,2.2617 0.4375,3.9961 1.3125,5.2031 0.875,1.1992 2.1289,1.7969 3.7656,1.7969 z m -5.0781,-15.484 c 1.0508,-1.3945 2.2188,-2.4219 3.5,-3.0781 1.2812,-0.66406 2.7539,-1 4.4219,-1 2.9453,0 5.3672,1.1719 7.2656,3.5156 1.8945,2.3438 2.8438,5.3594 2.8438,9.0469 0,3.6875 -0.94922,6.7031 -2.8438,9.0469 -1.8984,2.3438 -4.3203,3.5156 -7.2656,3.5156 -1.668,0 -3.1406,-0.33594 -4.4219,-1 -1.2813,-0.66406 -2.4492,-1.6914 -3.5,-3.0781 V 4e-4 H 3.6717 v -33.234 h 7.6562 z"
         id="path20" />
    </symbol>
    <symbol
       id="a"
       overflow="visible">
      <path
         d="m 0.53125,-23.922 h 7.6562 l 6.4219,16.234 5.4688,-16.234 h 7.6562 l -10.062,26.188 c -1.0117,2.6641 -2.1953,4.5234 -3.5469,5.5781 -1.3438,1.0625 -3.1211,1.5938 -5.3281,1.5938 H 4.37545 V 4.4223 h 2.3906 c 1.3008,0 2.2422,-0.21094 2.8281,-0.625 0.59375,-0.40625 1.0547,-1.1484 1.3906,-2.2188 l 0.20312,-0.65625 z"
         id="path23" />
    </symbol>
    <symbol
       id="d"
       overflow="visible">
      <path
         d="m 4.0156,-31.891 h 22.203 v 6.2188 h -13.984 v 5.9375 h 13.141 v 6.2188 h -13.141 v 7.2969 h 14.453 V -2e-4 H 4.0156 Z"
         id="path26" />
    </symbol>
    <symbol
       id="l"
       overflow="visible">
      <path
         d="m 3.4219,-9.3125 v -14.609 h 7.6875 v 2.3906 c 0,1.293 -0.01172,2.918 -0.03125,4.875 -0.01172,1.9609 -0.01563,3.2656 -0.01563,3.9219 0,1.9297 0.04687,3.3125 0.14062,4.1562 0.10156,0.84375 0.28125,1.4609 0.53125,1.8438 0.3125,0.5 0.71875,0.88672 1.2188,1.1562 0.50781,0.27344 1.0938,0.40625 1.75,0.40625 1.5938,0 2.8438,-0.60938 3.75,-1.8281 0.91406,-1.2266 1.375,-2.9297 1.375,-5.1094 v -11.812 h 7.6406 v 23.922 h -7.6406 v -3.4531 c -1.1562,1.3867 -2.3828,2.4141 -3.6719,3.0781 -1.2812,0.66406 -2.6992,1 -4.25,1 -2.7734,0 -4.8828,-0.84766 -6.3281,-2.5469 -1.4375,-1.6953 -2.1562,-4.1602 -2.1562,-7.3906 z"
         id="path29" />
    </symbol>
    <symbol
       id="k"
       overflow="visible">
      <path
         d="m 23,-23.172 v 6.2344 c -1.0312,-0.71875 -2.0742,-1.2422 -3.125,-1.5781 -1.043,-0.34375 -2.125,-0.51562 -3.25,-0.51562 -2.1367,0 -3.8047,0.625 -5,1.875 -1.1875,1.2422 -1.7812,2.9805 -1.7812,5.2188 0,2.2305 0.59375,3.9688 1.7812,5.2188 1.1953,1.25 2.8633,1.875 5,1.875 1.1953,0 2.332,-0.17578 3.4062,-0.53125 1.0703,-0.36328 2.0625,-0.89453 2.9688,-1.5938 v 6.2656 c -1.1875,0.4375 -2.4023,0.76562 -3.6406,0.98438 -1.2305,0.22656 -2.4648,0.34375 -3.7031,0.34375 -4.3125,0 -7.6875,-1.1094 -10.125,-3.3281 -2.4375,-2.2187 -3.6562,-5.2969 -3.6562,-9.2344 0,-3.9453 1.2188,-7.0234 3.6562,-9.2344 2.4375,-2.2188 5.8125,-3.3281 10.125,-3.3281 1.25,0 2.4844,0.10938 3.7031,0.32812 1.2187,0.21874 2.4297,0.55469 3.6406,1 z"
         id="path32" />
    </symbol>
    <symbol
       id="j"
       overflow="visible">
      <path
         d="m 3.6719,-33.234 h 7.6562 V 0 H 3.6719 Z"
         id="path35" />
    </symbol>
    <symbol
       id="i"
       overflow="visible">
      <path
         d="M 11.328,-3.4531 V 9.0939 H 3.6718 v -33.016 h 7.6562 v 3.5 c 1.0508,-1.3945 2.2188,-2.4219 3.5,-3.0781 1.2812,-0.66406 2.7539,-1 4.4219,-1 2.9453,0 5.3672,1.1719 7.2656,3.5156 1.8945,2.3438 2.8438,5.3594 2.8438,9.0469 0,3.6875 -0.94922,6.7031 -2.8438,9.0469 -1.8984,2.3438 -4.3203,3.5156 -7.2656,3.5156 -1.668,0 -3.1406,-0.33594 -4.4219,-1 -1.2813,-0.66406 -2.4492,-1.6914 -3.5,-3.0781 z m 5.0781,-15.5 c -1.6367,0 -2.8906,0.60547 -3.7656,1.8125 -0.875,1.1992 -1.3125,2.9336 -1.3125,5.2031 0,2.2617 0.4375,3.9961 1.3125,5.2031 0.875,1.1992 2.1289,1.7969 3.7656,1.7969 1.6328,0 2.8828,-0.59766 3.75,-1.7969 0.86328,-1.1953 1.2969,-2.9297 1.2969,-5.2031 0,-2.2812 -0.43359,-4.0195 -1.2969,-5.2188 -0.86719,-1.1953 -2.1172,-1.7969 -3.75,-1.7969 z"
         id="path38" />
    </symbol>
  </defs>
  <g
     id="g1765"
     transform="translate(-96.122545,-26.184545)"
     style="fill:#ffffff;fill-opacity:1">
    <path
       d="m 341.25,481.31 h 17.5 v 17.5 h -17.5 z"
       id="path43"
       style="fill:#ffffff;fill-opacity:1" />
    <path
       d="m 376.25,481.31 h 17.5 v 17.5 h -17.5 z"
       id="path45"
       style="fill:#ffffff;fill-opacity:1" />
    <path
       d="m 306.25,481.31 h 17.5 v 17.5 h -17.5 z"
       id="path47"
       style="fill:#ffffff;fill-opacity:1" />
    <path
       d="m 187.37,350.06 13.879,-13.879 92.629,92.629 -13.879,13.879 z"
       id="path49"
       style="fill:#ffffff;fill-opacity:1" />
    <path
       d="m 139.99,472.56 43.75,-43.75 17.496,17.496 -43.75,43.75 z"
       id="path51"
       style="fill:#ffffff;fill-opacity:1" />
    <path
       d="m 178.62,393.81 13.879,-13.879 57.625,57.625 -13.879,13.879 z"
       id="path53"
       style="fill:#ffffff;fill-opacity:1" />
    <path
       d="m 99.871,472.56 -3.6211,3.6211 v 10.254 l 47.371,47.375 h 10.258 l 3.6211,-3.625 v -10.254 l -47.371,-47.371 z"
       id="path55"
       style="fill:#ffffff;fill-opacity:1" />
    <path
       d="M 338.26,213.15 171.09,26.31 H 108.621 L 299.311,217 286.936,229.371 96.246,38.681 v 62.465 l 190.06,170.07 z"
       id="path57"
       style="fill:#ffffff;fill-opacity:1" />
    <path
       d="m 498.75,446.31 17.496,-17.496 43.75,43.75 -17.496,17.496 z"
       id="path59"
       style="fill:#ffffff;fill-opacity:1" />
    <path
       d="m 589.87,472.56 -47.371,47.371 v 10.254 l 3.6211,3.625 h 10.258 l 47.371,-47.375 v -10.254 l -3.6211,-3.6211 z"
       id="path61"
       style="fill:#ffffff;fill-opacity:1" />
    <path
       d="m 413.06,229.37 -12.375,-12.371 190.69,-190.69 h -62.469 l -289.37,323.42 14.211,14.207 133.81,-133.81 12.375,12.371 -133.82,133.82 14.211,14.207 323.42,-289.37 V 38.689 Z"
       id="path63"
       style="fill:#ffffff;fill-opacity:1" />
    <path
       d="m 449.87,437.56 57.625,-57.625 13.879,13.879 -57.625,57.625 z"
       id="path65"
       style="fill:#ffffff;fill-opacity:1" />
    <path
       d="m 363.12,339.93 56.543,50.59 14.211,-14.207 -52.613,-52.613 z"
       id="path67"
       style="fill:#ffffff;fill-opacity:1" />
    <path
       d="m 406.12,428.81 92.629,-92.629 13.879,13.879 -92.629,92.629 z"
       id="path69"
       style="fill:#ffffff;fill-opacity:1" />
    <path
       d="m 460.46,349.73 -48.145,-53.812 -17.988,16.098 51.922,51.922 z"
       id="path71"
       style="fill:#ffffff;fill-opacity:1" />
    <path
       d="M 350,159.29 374.484,122.56 350,85.833 325.516,122.56 Z"
       id="path73"
       style="fill:#ffffff;fill-opacity:1" />
    <path
       d="m 305.09,36.992 16.168,-6.6953 13.398,32.344 -16.168,6.6953 z"
       id="path75"
       style="fill:#ffffff;fill-opacity:1" />
    <path
       d="m 257.73,93.805 6.6953,-16.168 32.344,13.398 -6.6953,16.168 z"
       id="path77"
       style="fill:#ffffff;fill-opacity:1" />
    <path
       d="m 403.22,91.047 32.34,-13.402 6.6992,16.168 -32.34,13.402 z"
       id="path79"
       style="fill:#ffffff;fill-opacity:1" />
    <path
       d="m 365.35,62.633 13.402,-32.34 16.168,6.6992 -13.402,32.34 z"
       id="path81"
       style="fill:#ffffff;fill-opacity:1" />
  </g>
</svg>
